# xmcd CD database file
#
# Track frame offsets:
#	150
#	9220
#	27285
#	40520
#	57395
#	83125
#	109835
#	126357
#	137500
#	150630
#	167282
#	181735
#	194420
#	206237
#	225402
#	237775
#	258647
#	267560
#	284765
#	301055
#
# Disc length: 4225 seconds
#
# Revision: 0
# Processed by: cddbd v1.5.1PL0 Copyright (c) Steve Scherf et al.
# Submitted via: CDex 1.51
#
DISCID=0b107f14
DTITLE=The Beatles - Lennon=McCartney Songbook Vol IN MY LIFE
DYEAR=1900
DGENRE=Pop
TTITLE0=PLEASE PLEASE ME
TTITLE1=THIS BOY
TTITLE2=ALL I'VE GOT TO DO
TTITLE3=THINGS WE SAID TODAY
TTITLE4=EVERY LITTLE THING
TTITLE5=TICKET TO RIDE
TTITLE6=YOU'VE GOT TO HIDE YOUR LOVE AWAY
TTITLE7=NORWEGIAN WOOD(THIS BIRD HAS FLOWN)
TTITLE8=IN MY LIFE
TTITLE9=HERE,THERE AND EVERYWHERE
TTITLE10=NOWHERE MAN
TTITLE11=YELLOW SUBMARINE
TTITLE12=GOOD DAY SUNSHINE
TTITLE13=TOMORROW NEVER KNOWS
TTITLE14=PENNY LANE
TTITLE15=WITH A LETTLE HELP FROM MY FRIENDS
TTITLE16=BLACKBIRD
TTITLE17=GOOD NIGHT
TTITLE18=SHE CAME IN THROUGH THE BATHROOM WINDOW
TTITLE19=TAXMAN*
EXTD=
EXTT0=
EXTT1=
EXTT2=
EXTT3=
EXTT4=
EXTT5=
EXTT6=
EXTT7=
EXTT8=
EXTT9=
EXTT10=
EXTT11=
EXTT12=
EXTT13=
EXTT14=
EXTT15=
EXTT16=
EXTT17=
EXTT18=
EXTT19=
PLAYORDER=
